<?xml version="1.0" standalone="no"?>
<!DOCTYPE svg PUBLIC "-//W3C//DTD SVG 20010904//EN"
 "http://www.w3.org/TR/2001/REC-SVG-20010904/DTD/svg10.dtd">
<svg version="1.0" xmlns="http://www.w3.org/2000/svg"
 width="512.000000pt" height="512.000000pt" viewBox="0 0 512.000000 512.000000"
 preserveAspectRatio="xMidYMid meet">

<g transform="translate(0.000000,512.000000) scale(0.100000,-0.100000)"
fill="#000000" stroke="none">
<path d="M1385 4634 c-173 -26 -296 -64 -435 -135 -349 -179 -597 -516 -665
-905 -19 -111 -19 -307 0 -420 14 -82 72 -284 81 -284 3 0 22 11 43 25 55 37
128 63 199 71 34 3 62 8 62 9 0 1 -11 32 -24 68 -14 35 -32 102 -42 147 -22
112 -15 313 16 419 97 337 353 582 698 668 92 23 322 23 414 0 217 -54 322
-121 568 -363 265 -260 255 -260 510 -10 237 233 313 288 485 345 457 152 950
-60 1151 -493 56 -121 75 -207 81 -352 6 -145 -8 -244 -53 -361 -13 -36 -24
-67 -24 -68 0 -1 28 -6 62 -9 72 -9 144 -34 200 -71 22 -15 41 -25 43 -23 13
14 66 203 80 287 25 146 17 368 -18 502 -63 243 -162 416 -341 595 -329 329
-816 446 -1262 303 -205 -65 -353 -159 -536 -337 l-118 -115 -117 115 c-65 63
-152 138 -193 167 -137 97 -304 169 -475 207 -68 15 -330 27 -390 18z"/>
<path d="M1883 3350 c-18 -4 -44 -15 -58 -24 -14 -9 -114 -149 -222 -311
l-196 -294 -413 -3 c-399 -3 -413 -4 -440 -24 -53 -39 -69 -71 -69 -134 0 -63
16 -95 69 -134 27 -20 41 -21 484 -24 251 -2 472 0 490 3 54 10 91 53 242 279
78 119 146 216 150 216 4 0 172 -247 373 -550 324 -485 371 -552 406 -570 71
-36 142 -21 196 41 17 19 111 157 210 307 l180 271 627 3 c615 3 627 3 654 24
53 39 69 71 69 134 0 63 -16 95 -69 134 -27 21 -36 21 -726 21 -688 0 -699 0
-727 -20 -15 -12 -98 -125 -184 -253 l-156 -232 -369 553 c-266 398 -377 556
-399 568 -39 21 -82 28 -122 19z"/>
<path d="M1021 2073 c30 -32 368 -398 752 -814 709 -770 718 -779 787 -779 69
0 79 10 728 714 350 380 688 746 750 814 l114 122 -219 0 -218 0 -575 -625
c-316 -343 -577 -625 -580 -625 -3 0 -264 282 -580 625 l-575 625 -219 0 -219
0 54 -57z"/>
</g>
</svg>
